<svg width="142" height="62" viewBox="0 0 142 62" fill="none" xmlns="http://www.w3.org/2000/svg">
<rect width="142" height="62" rx="8" fill="white"/>
<rect x="0.5" y="0.5" width="141" height="61" rx="7.5" stroke="#264E36" stroke-opacity="0.61"/>
<path d="M52.8723 24.1013C49.9229 25.9238 48.1012 29.0482 48.1012 32.5198C48.1012 36.4253 50.4434 39.9836 54 41.459C53.306 43.7155 52.2651 45.7985 50.9639 47.7078C49.0554 50.3983 47.0602 53.1755 44.1108 53.1755C41.1614 53.1755 40.294 51.4397 36.8241 51.4397C33.441 51.4397 32.2265 53.2623 29.4506 53.2623C26.6747 53.2623 24.7663 50.7454 22.5976 47.621C19.7349 43.2816 18.0867 38.2478 18 32.9537C18 24.3616 23.5518 19.7618 29.1036 19.7618C32.053 19.7618 34.4819 21.6712 36.3036 21.6712C38.0386 21.6712 40.8145 19.675 44.1108 19.675C47.5807 19.5882 50.8771 21.2372 52.8723 24.1013ZM42.5494 16.0299C44.0241 14.2941 44.8048 12.1244 44.8916 9.86789C44.8916 9.60752 44.8916 9.26037 44.8048 9C42.2892 9.26037 39.947 10.4754 38.2988 12.3848C36.8241 14.0338 35.9566 16.1167 35.8699 18.3732C35.8699 18.6336 35.8699 18.8939 35.9566 19.1543C36.1301 19.1543 36.3904 19.2411 36.5639 19.2411C38.906 19.0675 41.0747 17.8525 42.5494 16.0299Z" fill="black" fill-opacity="0.85"/>
<path d="M70.5568 43V19.7273H78.8523C80.6629 19.7273 82.1629 20.0568 83.3523 20.7159C84.5417 21.375 85.4318 22.2765 86.0227 23.4205C86.6136 24.5568 86.9091 25.8371 86.9091 27.2614C86.9091 28.6932 86.6098 29.9811 86.0114 31.125C85.4205 32.2614 84.5265 33.1629 83.3295 33.8295C82.1402 34.4886 80.6439 34.8182 78.8409 34.8182H73.1364V31.8409H78.5227C79.6667 31.8409 80.5947 31.6439 81.3068 31.25C82.0189 30.8485 82.5417 30.303 82.875 29.6136C83.2083 28.9242 83.375 28.1402 83.375 27.2614C83.375 26.3826 83.2083 25.6023 82.875 24.9205C82.5417 24.2386 82.0152 23.7045 81.2955 23.3182C80.5833 22.9318 79.6439 22.7386 78.4773 22.7386H74.0682V43H70.5568ZM95.6761 43.3864C94.5701 43.3864 93.5701 43.1818 92.6761 42.7727C91.7822 42.3561 91.0739 41.7538 90.5511 40.9659C90.036 40.178 89.7784 39.2121 89.7784 38.0682C89.7784 37.0833 89.9678 36.2727 90.3466 35.6364C90.7254 35 91.2367 34.4962 91.8807 34.125C92.5246 33.7538 93.2443 33.4735 94.0398 33.2841C94.8352 33.0947 95.6458 32.9508 96.4716 32.8523C97.517 32.7311 98.3655 32.6326 99.017 32.5568C99.6686 32.4735 100.142 32.3409 100.438 32.1591C100.733 31.9773 100.881 31.6818 100.881 31.2727V31.1932C100.881 30.2008 100.6 29.4318 100.04 28.8864C99.4867 28.3409 98.661 28.0682 97.5625 28.0682C96.4186 28.0682 95.517 28.322 94.858 28.8295C94.2064 29.3295 93.7557 29.8864 93.5057 30.5L90.3125 29.7727C90.6913 28.7121 91.2443 27.8561 91.9716 27.2045C92.7064 26.5455 93.5511 26.0682 94.5057 25.7727C95.4602 25.4697 96.464 25.3182 97.517 25.3182C98.214 25.3182 98.9527 25.4015 99.733 25.5682C100.521 25.7273 101.256 26.0227 101.938 26.4545C102.627 26.8864 103.191 27.5038 103.631 28.3068C104.07 29.1023 104.29 30.1364 104.29 31.4091V43H100.972V40.6136H100.835C100.616 41.053 100.286 41.4848 99.8466 41.9091C99.4072 42.3333 98.8428 42.6856 98.1534 42.9659C97.464 43.2462 96.6383 43.3864 95.6761 43.3864ZM96.4148 40.6591C97.3542 40.6591 98.1572 40.4735 98.8239 40.1023C99.4981 39.7311 100.009 39.2462 100.358 38.6477C100.714 38.0417 100.892 37.3939 100.892 36.7045V34.4545C100.771 34.5758 100.536 34.6894 100.188 34.7955C99.8466 34.8939 99.4564 34.9811 99.017 35.0568C98.5777 35.125 98.1496 35.1894 97.733 35.25C97.3163 35.303 96.9678 35.3485 96.6875 35.3864C96.0284 35.4697 95.4261 35.6098 94.8807 35.8068C94.3428 36.0038 93.911 36.2879 93.5852 36.6591C93.267 37.0227 93.108 37.5076 93.108 38.1136C93.108 38.9545 93.4186 39.5909 94.0398 40.0227C94.661 40.447 95.4527 40.6591 96.4148 40.6591ZM110.338 49.5455C109.83 49.5455 109.368 49.5038 108.952 49.4205C108.535 49.3447 108.224 49.2614 108.02 49.1705L108.838 46.3864C109.459 46.553 110.012 46.625 110.497 46.6023C110.982 46.5795 111.41 46.3977 111.781 46.0568C112.16 45.7159 112.493 45.1591 112.781 44.3864L113.202 43.2273L106.815 25.5455H110.452L114.872 39.0909H115.054L119.474 25.5455H123.122L115.929 45.3295C115.596 46.2386 115.171 47.0076 114.656 47.6364C114.141 48.2727 113.527 48.75 112.815 49.0682C112.103 49.3864 111.277 49.5455 110.338 49.5455Z" fill="black" fill-opacity="0.85"/>
</svg>
