<svg width="142" height="62" viewBox="0 0 142 62" fill="none" xmlns="http://www.w3.org/2000/svg">
<rect width="142" height="62" rx="8" fill="white"/>
<rect x="0.5" y="0.5" width="141" height="61" rx="7.5" stroke="#264E36" stroke-opacity="0.61"/>
<path d="M53.36 31.4584C53.36 30.0284 53.2317 28.6534 52.9933 27.3334H34V35.1342H44.8533C44.3858 37.655 42.965 39.7909 40.8292 41.2209V46.2809H47.3467C51.16 42.77 53.36 37.6 53.36 31.4584Z" fill="#4285F4"/>
<path d="M34.0001 51.1667C39.4451 51.1667 44.0101 49.3608 47.3467 46.2808L40.8292 41.2208C39.0234 42.4308 36.7134 43.1458 34.0001 43.1458C28.7476 43.1458 24.3017 39.5983 22.7159 34.8317H15.9784V40.0567C19.2967 46.6475 26.1167 51.1667 34.0001 51.1667Z" fill="#34A853"/>
<path d="M22.7159 34.8317C22.3125 33.6217 22.0834 32.3292 22.0834 31C22.0834 29.6709 22.3125 28.3784 22.7159 27.1684V21.9434H15.9784C14.5667 24.7536 13.8321 27.8551 13.8334 31C13.8334 34.2542 14.6125 37.3342 15.9784 40.0567L22.7159 34.8317Z" fill="#FBBC05"/>
<path d="M34.0001 18.8542C36.9609 18.8542 39.6192 19.8717 41.7092 21.87L47.4934 16.0859C44.0009 12.8317 39.4359 10.8334 34.0001 10.8334C26.1167 10.8334 19.2967 15.3525 15.9784 21.9434L22.7159 27.1684C24.3017 22.4017 28.7476 18.8542 34.0001 18.8542Z" fill="#EA4335"/>
<path d="M75.5568 42V18.7273H83.8523C85.6629 18.7273 87.1629 19.0568 88.3523 19.7159C89.5417 20.375 90.4318 21.2765 91.0227 22.4205C91.6136 23.5568 91.9091 24.8371 91.9091 26.2614C91.9091 27.6932 91.6098 28.9811 91.0114 30.125C90.4205 31.2614 89.5265 32.1629 88.3295 32.8295C87.1402 33.4886 85.6439 33.8182 83.8409 33.8182H78.1364V30.8409H83.5227C84.6667 30.8409 85.5947 30.6439 86.3068 30.25C87.0189 29.8485 87.5417 29.303 87.875 28.6136C88.2083 27.9242 88.375 27.1402 88.375 26.2614C88.375 25.3826 88.2083 24.6023 87.875 23.9205C87.5417 23.2386 87.0152 22.7045 86.2955 22.3182C85.5833 21.9318 84.6439 21.7386 83.4773 21.7386H79.0682V42H75.5568ZM100.676 42.3864C99.5701 42.3864 98.5701 42.1818 97.6761 41.7727C96.7822 41.3561 96.0739 40.7538 95.5511 39.9659C95.036 39.178 94.7784 38.2121 94.7784 37.0682C94.7784 36.0833 94.9678 35.2727 95.3466 34.6364C95.7254 34 96.2367 33.4962 96.8807 33.125C97.5246 32.7538 98.2443 32.4735 99.0398 32.2841C99.8352 32.0947 100.646 31.9508 101.472 31.8523C102.517 31.7311 103.366 31.6326 104.017 31.5568C104.669 31.4735 105.142 31.3409 105.438 31.1591C105.733 30.9773 105.881 30.6818 105.881 30.2727V30.1932C105.881 29.2008 105.6 28.4318 105.04 27.8864C104.487 27.3409 103.661 27.0682 102.562 27.0682C101.419 27.0682 100.517 27.322 99.858 27.8295C99.2064 28.3295 98.7557 28.8864 98.5057 29.5L95.3125 28.7727C95.6913 27.7121 96.2443 26.8561 96.9716 26.2045C97.7064 25.5455 98.5511 25.0682 99.5057 24.7727C100.46 24.4697 101.464 24.3182 102.517 24.3182C103.214 24.3182 103.953 24.4015 104.733 24.5682C105.521 24.7273 106.256 25.0227 106.938 25.4545C107.627 25.8864 108.191 26.5038 108.631 27.3068C109.07 28.1023 109.29 29.1364 109.29 30.4091V42H105.972V39.6136H105.835C105.616 40.053 105.286 40.4848 104.847 40.9091C104.407 41.3333 103.843 41.6856 103.153 41.9659C102.464 42.2462 101.638 42.3864 100.676 42.3864ZM101.415 39.6591C102.354 39.6591 103.157 39.4735 103.824 39.1023C104.498 38.7311 105.009 38.2462 105.358 37.6477C105.714 37.0417 105.892 36.3939 105.892 35.7045V33.4545C105.771 33.5758 105.536 33.6894 105.188 33.7955C104.847 33.8939 104.456 33.9811 104.017 34.0568C103.578 34.125 103.15 34.1894 102.733 34.25C102.316 34.303 101.968 34.3485 101.688 34.3864C101.028 34.4697 100.426 34.6098 99.8807 34.8068C99.3428 35.0038 98.911 35.2879 98.5852 35.6591C98.267 36.0227 98.108 36.5076 98.108 37.1136C98.108 37.9545 98.4186 38.5909 99.0398 39.0227C99.661 39.447 100.453 39.6591 101.415 39.6591ZM115.338 48.5455C114.83 48.5455 114.368 48.5038 113.952 48.4205C113.535 48.3447 113.224 48.2614 113.02 48.1705L113.838 45.3864C114.459 45.553 115.012 45.625 115.497 45.6023C115.982 45.5795 116.41 45.3977 116.781 45.0568C117.16 44.7159 117.493 44.1591 117.781 43.3864L118.202 42.2273L111.815 24.5455H115.452L119.872 38.0909H120.054L124.474 24.5455H128.122L120.929 44.3295C120.596 45.2386 120.171 46.0076 119.656 46.6364C119.141 47.2727 118.527 47.75 117.815 48.0682C117.103 48.3864 116.277 48.5455 115.338 48.5455Z" fill="black" fill-opacity="0.85"/>
</svg>
