<svg width="167" height="80" viewBox="0 0 167 80" fill="none" xmlns="http://www.w3.org/2000/svg">
<path d="M140.4 24.1889L140.397 24.1949L140.383 24.2231C140.31 24.372 140.242 24.5258 140.179 24.6841C140.125 24.8109 140.078 24.9436 140.038 25.0811C140.012 25.1703 140.004 25.2179 140.001 25.2342V25.2402C140.013 25.3716 140.044 25.4976 140.092 25.6089C140.167 25.8067 140.27 26.0134 140.4 26.2706L140.41 26.2884C140.528 26.5234 140.67 26.8044 140.78 27.0958C140.892 27.3932 141 27.7724 141 28.2036C141 28.4831 140.935 28.7508 140.881 28.9381C140.823 29.1375 140.756 29.3303 140.679 29.515C140.601 29.71 140.516 29.8995 140.426 30.083L140.408 30.1202L140.403 30.1321L140.401 30.1351C140.322 30.293 140.203 30.3975 140.072 30.4257C139.941 30.4539 139.807 30.4033 139.701 30.2852C139.595 30.1671 139.524 29.9911 139.506 29.7959C139.487 29.6007 139.521 29.4023 139.6 29.2444L139.603 29.2385L139.617 29.2102C139.69 29.0613 139.758 28.9075 139.821 28.7493C139.875 28.6224 139.922 28.4897 139.962 28.3523C139.988 28.263 139.996 28.2155 139.999 28.1991C139.988 28.0657 139.958 27.9376 139.909 27.8244C139.816 27.5937 139.713 27.3727 139.6 27.1627L139.59 27.1449C139.455 26.8881 139.331 26.6184 139.22 26.3375C139.084 26.0025 139.008 25.621 139 25.2298C139 24.9502 139.065 24.6826 139.119 24.4952C139.178 24.29 139.253 24.0878 139.321 23.9183C139.4 23.7243 139.485 23.5348 139.574 23.3503L139.599 23.2983C139.678 23.1403 139.797 23.0358 139.928 23.0076C140.059 22.9795 140.193 23.03 140.299 23.1481C140.405 23.2662 140.476 23.4422 140.494 23.6374C140.513 23.8326 140.479 24.031 140.4 24.1889ZM143.4 24.1889L143.397 24.1949L143.383 24.2231C143.31 24.372 143.242 24.5258 143.179 24.6841C143.125 24.8109 143.078 24.9436 143.038 25.0811C143.012 25.1703 143.004 25.2179 143.001 25.2342V25.2402C143.013 25.3716 143.044 25.4976 143.092 25.6089C143.167 25.8067 143.27 26.0134 143.4 26.2706L143.41 26.2884C143.528 26.5234 143.67 26.8044 143.78 27.0958C143.892 27.3932 144 27.7724 144 28.2036C144 28.4831 143.935 28.7508 143.881 28.9381C143.823 29.1375 143.756 29.3303 143.679 29.515C143.601 29.71 143.516 29.8995 143.426 30.083L143.408 30.1202L143.403 30.1321L143.401 30.1351C143.322 30.293 143.203 30.3975 143.072 30.4257C142.941 30.4539 142.807 30.4033 142.701 30.2852C142.595 30.1671 142.524 29.9911 142.506 29.7959C142.487 29.6007 142.521 29.4023 142.6 29.2444L142.603 29.2385L142.617 29.2102C142.69 29.0613 142.758 28.9075 142.821 28.7493C142.875 28.6224 142.922 28.4897 142.962 28.3523C142.988 28.263 142.996 28.2155 142.999 28.1991C142.988 28.0657 142.958 27.9376 142.909 27.8244C142.816 27.5937 142.713 27.3727 142.6 27.1627L142.59 27.1449C142.455 26.8881 142.331 26.6184 142.22 26.3375C142.084 26.0025 142.008 25.621 142 25.2298C142 24.9502 142.065 24.6826 142.119 24.4952C142.178 24.29 142.253 24.0878 142.321 23.9183C142.4 23.7243 142.485 23.5348 142.574 23.3503L142.599 23.2983C142.678 23.1403 142.797 23.0358 142.928 23.0076C143.059 22.9795 143.193 23.03 143.299 23.1481C143.405 23.2662 143.476 23.4422 143.494 23.6374C143.513 23.8326 143.479 24.031 143.4 24.1889ZM146.4 24.1889L146.397 24.1949L146.383 24.2231C146.31 24.372 146.242 24.5258 146.179 24.6841C146.125 24.8109 146.078 24.9436 146.038 25.0811C146.012 25.1703 146.004 25.2179 146.001 25.2342V25.2402C146.013 25.3716 146.044 25.4976 146.092 25.6089C146.167 25.8067 146.27 26.0134 146.4 26.2706L146.41 26.2884C146.528 26.5234 146.67 26.8044 146.78 27.0958C146.892 27.3932 147 27.7724 147 28.2036C147 28.4831 146.935 28.7508 146.881 28.9381C146.823 29.1375 146.756 29.3303 146.679 29.515C146.601 29.71 146.517 29.8995 146.427 30.083L146.408 30.1202L146.403 30.1321L146.401 30.1351C146.322 30.293 146.203 30.3975 146.072 30.4257C145.941 30.4539 145.807 30.4033 145.701 30.2852C145.595 30.1671 145.524 29.9911 145.506 29.7959C145.487 29.6007 145.521 29.4023 145.6 29.2444L145.603 29.2385L145.617 29.2102C145.69 29.0613 145.758 28.9075 145.821 28.7493C145.875 28.6224 145.922 28.4897 145.962 28.3523C145.988 28.263 145.996 28.2155 145.999 28.1991C145.988 28.0657 145.958 27.9376 145.909 27.8244C145.816 27.5937 145.713 27.3727 145.6 27.1627L145.59 27.1449C145.455 26.8881 145.331 26.6184 145.22 26.3375C145.084 26.0025 145.008 25.621 145 25.2298C145 24.9502 145.065 24.6826 145.119 24.4952C145.178 24.29 145.253 24.0878 145.321 23.9183C145.4 23.7243 145.485 23.5348 145.574 23.3503L145.599 23.2983C145.678 23.1403 145.797 23.0358 145.928 23.0076C146.059 22.9795 146.193 23.03 146.299 23.1481C146.405 23.2662 146.476 23.4422 146.494 23.6374C146.513 23.8326 146.479 24.031 146.4 24.1889Z" fill="#264E36"/>
<path d="M7.296 52.28C5.97333 52.28 4.71467 51.896 3.52 51.128C2.32533 50.36 1.42933 49.2293 0.832 47.736C0.618667 47.1813 0.469333 46.584 0.384 45.944C0.341333 45.304 0.32 44.6853 0.32 44.088V43.256C0.32 42.9573 0.341333 42.68 0.384 42.424C0.469333 42.168 0.64 42.04 0.896 42.04C0.981333 42.04 1.024 42.0827 1.024 42.168C1.024 42.424 1.00267 42.68 0.96 42.936C0.96 43.192 0.96 43.448 0.96 43.704C0.96 45.7093 1.45067 47.224 2.432 48.248C3.456 49.272 4.71467 49.784 6.208 49.784C7.70133 49.784 9.152 49.3573 10.56 48.504C11.968 47.6507 13.2693 46.5627 14.464 45.24C15.4453 44.1733 16.4053 42.7867 17.344 41.08C18.3253 39.3733 19.328 37.5387 20.352 35.576C18.9867 35.6187 17.5573 35.6827 16.064 35.768C14.5707 35.8107 13.2053 35.9387 11.968 36.152C11.584 36.1947 11.4773 36.088 11.648 35.832C11.8187 35.576 12.1387 35.256 12.608 34.872C13.0773 34.488 13.568 34.1467 14.08 33.848C14.6347 33.5493 15.0827 33.3787 15.424 33.336C16.1493 33.3787 17.0453 33.4213 18.112 33.464C19.2213 33.464 20.3093 33.4853 21.376 33.528C22.3147 31.8213 23.2107 30.0933 24.064 28.344C24.96 26.552 25.792 24.888 26.56 23.352C26.9867 22.4987 27.5413 21.6453 28.224 20.792C28.9493 19.896 29.7387 19.1067 30.592 18.424C31.488 17.7413 32.4053 17.3147 33.344 17.144C31.0827 17.2293 28.736 17.2933 26.304 17.336C23.9147 17.3787 21.632 17.6987 19.456 18.296C18.4747 18.552 17.6 18.8933 16.832 19.32C16.064 19.7467 15.5093 20.28 15.168 20.92C14.8267 21.56 14.656 22.264 14.656 23.032C14.656 24.0987 14.9547 24.8667 15.552 25.336C15.5947 25.3787 15.616 25.4213 15.616 25.464C15.616 25.5493 15.5307 25.6347 15.36 25.72C15.232 25.8053 15.104 25.8267 14.976 25.784C14.592 25.5707 14.1227 25.0587 13.568 24.248C13.0133 23.3947 12.672 22.6907 12.544 22.136C12.416 21.624 12.352 21.1547 12.352 20.728C12.352 19.6187 12.7147 18.7653 13.44 18.168C14.1653 17.528 15.0827 17.08 16.192 16.824C17.3013 16.5253 18.432 16.3547 19.584 16.312C20.736 16.2267 21.76 16.184 22.656 16.184H29.76C31.3813 16.184 32.7893 16.184 33.984 16.184C35.1787 16.1413 36.1387 16.056 36.864 15.928C36.9493 15.928 37.0133 15.928 37.056 15.928C37.0987 15.8853 37.1413 15.864 37.184 15.864C37.44 15.864 37.568 15.9493 37.568 16.12C37.568 16.2907 37.4827 16.4613 37.312 16.632C37.184 16.76 37.0773 16.824 36.992 16.824C35.6693 16.952 34.432 17.528 33.28 18.552C32.128 19.576 31.0827 20.8987 30.144 22.52C29.888 22.9893 29.4187 23.864 28.736 25.144C28.0533 26.424 27.3067 27.832 26.496 29.368C25.6853 30.904 24.9387 32.3333 24.256 33.656C25.0667 33.6987 25.728 33.7413 26.24 33.784C26.7947 33.784 27.1147 33.784 27.2 33.784H36.608C36.992 33.784 37.696 33.72 38.72 33.592C39.7867 33.464 40.5973 33.272 41.152 33.016C42.304 30.7973 43.4773 28.6 44.672 26.424C45.8667 24.248 46.976 22.3067 48 20.6C49.0667 18.8507 49.8987 17.592 50.496 16.824C51.2213 16.5253 52.032 16.1627 52.928 15.736C53.8667 15.3093 54.784 14.9253 55.68 14.584C56.6187 14.2427 57.4507 14.072 58.176 14.072C58.3893 14.072 58.6027 14.136 58.816 14.264C59.072 14.392 59.2 14.52 59.2 14.648C59.2 14.8613 58.7733 14.968 57.92 14.968C57.4933 14.968 57.0453 15.0533 56.576 15.224C56.1067 15.352 55.5093 15.8 54.784 16.568C54.1867 17.1653 53.3973 18.1893 52.416 19.64C51.4773 21.048 50.4533 22.712 49.344 24.632C48.2347 26.5093 47.104 28.4933 45.952 30.584C44.8427 32.6747 43.7973 34.7227 42.816 36.728C41.8347 38.6907 41.0027 40.4827 40.32 42.104C39.6373 43.6827 39.1893 44.8987 38.976 45.752C38.9333 46.0507 38.8693 46.392 38.784 46.776C38.7413 47.1173 38.72 47.4587 38.72 47.8C38.72 48.4827 38.8907 49.08 39.232 49.592C39.5733 50.104 40.2133 50.36 41.152 50.36C41.8347 50.36 42.5173 50.232 43.2 49.976C43.9253 49.72 44.5653 49.4427 45.12 49.144C46.656 48.2907 48.0427 47.1387 49.28 45.688C50.5173 44.1947 51.52 42.936 52.288 41.912C52.416 41.7413 52.5013 41.656 52.544 41.656C52.672 41.656 52.736 41.8053 52.736 42.104C52.736 42.36 52.672 42.5947 52.544 42.808C51.7333 43.96 50.6667 45.304 49.344 46.84C48.0213 48.3333 46.4853 49.5707 44.736 50.552C43.3707 51.2773 41.8133 51.64 40.064 51.64C38.7413 51.64 37.5893 51.1707 36.608 50.232C35.6693 49.2507 35.2 48.0773 35.2 46.712C35.2 46.0293 35.328 45.3467 35.584 44.664C35.968 43.6827 36.5867 42.2747 37.44 40.44C38.336 38.6053 39.3387 36.5787 40.448 34.36C40.0213 34.744 39.5307 35.0853 38.976 35.384C38.4213 35.6827 37.888 35.8107 37.376 35.768C36.0533 35.64 34.5387 35.576 32.832 35.576C31.168 35.5333 29.0133 35.512 26.368 35.512H23.296C22.1013 37.944 20.864 40.3333 19.584 42.68C18.304 44.984 16.9813 46.8827 15.616 48.376C14.5493 49.528 13.2693 50.4667 11.776 51.192C10.2827 51.9173 8.78933 52.28 7.296 52.28ZM55.074 51.512C53.3247 51.512 52.1087 51.1707 51.426 50.488C50.7433 49.8053 50.402 48.9733 50.402 47.992C50.402 46.7547 50.722 45.432 51.362 44.024C52.0447 42.616 52.6847 41.4213 53.282 40.44C53.9647 39.416 54.882 38.3493 56.034 37.24C57.186 36.1307 58.4447 35.192 59.81 34.424C61.1753 33.656 62.498 33.272 63.778 33.272C64.8873 33.272 65.6553 33.5493 66.082 34.104C66.5087 34.616 66.722 35.2347 66.722 35.96C66.722 37.2827 66.3167 38.3707 65.506 39.224C64.738 40.0773 63.778 40.7813 62.626 41.336C61.474 41.848 60.3647 42.2747 59.298 42.616C58.658 42.7867 57.9113 42.9573 57.058 43.128C56.2047 43.2987 55.394 43.384 54.626 43.384C54.3273 44.152 54.0927 44.8987 53.922 45.624C53.7513 46.3493 53.666 47.0107 53.666 47.608C53.666 48.3333 53.8367 48.9307 54.178 49.4C54.562 49.8693 55.1807 50.104 56.034 50.104C56.3753 50.104 56.7807 50.0613 57.25 49.976C57.7193 49.8907 58.2313 49.7627 58.786 49.592C60.066 49.1653 61.3247 48.4827 62.562 47.544C63.7993 46.6053 64.93 45.6027 65.954 44.536C67.0207 43.4267 67.8313 42.5093 68.386 41.784C68.514 41.912 68.578 42.0613 68.578 42.232C68.578 42.4453 68.4287 42.7867 68.13 43.256C67.2767 44.4507 66.1673 45.688 64.802 46.968C63.4367 48.248 61.922 49.336 60.258 50.232C58.594 51.0853 56.866 51.512 55.074 51.512ZM55.138 42.104C55.6927 42.1467 56.3113 42.1467 56.994 42.104C57.7193 42.0187 58.4233 41.8693 59.106 41.656C60.8553 41.144 62.114 40.3333 62.882 39.224C63.6927 38.072 64.098 37.048 64.098 36.152C64.098 35.64 63.9913 35.2133 63.778 34.872C63.5647 34.5307 63.2233 34.36 62.754 34.36C61.5167 34.36 60.4073 34.8293 59.426 35.768C58.4447 36.664 57.5913 37.7093 56.866 38.904C56.1407 40.0987 55.5647 41.1653 55.138 42.104ZM67.7475 51.896C67.5768 51.896 67.5768 51.7253 67.7475 51.384C67.9608 51 68.1528 50.5733 68.3235 50.104C68.5368 49.6347 68.7502 49.1227 68.9635 48.568C69.3902 47.544 69.8595 46.392 70.3715 45.112C70.8835 43.832 71.3742 42.5947 71.8435 41.4C72.3128 40.1627 72.7182 39.1173 73.0595 38.264C73.4435 37.368 73.6995 36.792 73.8275 36.536C73.2302 37.176 72.5048 37.9867 71.6515 38.968C70.8408 39.9067 70.0728 40.824 69.3475 41.72C68.6222 42.616 68.0675 43.32 67.6835 43.832C67.5555 44.0027 67.4488 44.088 67.3635 44.088C67.2782 44.088 67.2355 43.9813 67.2355 43.768C67.2355 43.4267 67.3422 43.1067 67.5555 42.808C68.3662 41.784 69.2622 40.632 70.2435 39.352C71.2675 38.072 72.1848 36.8987 72.9955 35.832C73.8062 34.7227 74.3182 33.9973 74.5315 33.656C75.0008 33.5707 75.6835 33.4427 76.5795 33.272C77.5182 33.1013 78.1582 32.8667 78.4995 32.568C78.6275 32.44 78.7555 32.376 78.8835 32.376C78.9688 32.376 79.0115 32.4613 79.0115 32.632C79.0542 32.76 79.0115 32.9093 78.8835 33.08C78.6275 33.336 78.2435 33.8907 77.7315 34.744C77.2622 35.5973 76.7288 36.5787 76.1315 37.688C75.5342 38.7973 74.9582 39.864 74.4035 40.888C74.8302 40.248 75.3848 39.5013 76.0675 38.648C76.7928 37.752 77.5822 36.8987 78.4355 36.088C79.2888 35.2347 80.1422 34.5307 80.9955 33.976C81.8915 33.4213 82.7235 33.144 83.4915 33.144C84.0462 33.144 84.5155 33.272 84.8995 33.528C85.2835 33.7413 85.5822 34.1467 85.7955 34.744C85.9235 35.0427 85.9875 35.384 85.9875 35.768C85.9875 36.4933 85.7955 37.1973 85.4115 37.88C85.0702 38.52 84.8142 39.0107 84.6435 39.352C84.6008 39.48 84.4515 39.608 84.1955 39.736C83.9395 39.8213 83.8328 39.7787 83.8755 39.608C83.9182 39.3947 83.9395 39.1813 83.9395 38.968C83.9822 38.7547 84.0035 38.52 84.0035 38.264C84.0035 37.5387 83.8542 36.8773 83.5555 36.28C83.2995 35.6827 82.8088 35.384 82.0835 35.384C81.4008 35.384 80.5688 35.8107 79.5875 36.664C78.6062 37.5173 77.6248 38.4987 76.6435 39.608C75.4062 41.0587 74.4248 42.4453 73.6995 43.768C72.9742 45.048 72.3768 46.3067 71.9075 47.544C71.6515 48.2267 71.3955 48.9093 71.1395 49.592C70.8835 50.232 70.6915 50.744 70.5635 51.128C70.0088 51.1707 69.4542 51.2987 68.8995 51.512C68.3448 51.768 67.9608 51.896 67.7475 51.896ZM87.489 51.576C86.9343 51.576 86.273 51.4693 85.505 51.256C84.737 51.0853 84.353 50.616 84.353 49.848C84.353 49.5493 84.417 49.208 84.545 48.824C84.673 48.44 84.801 48.0987 84.929 47.8C85.3557 46.6907 85.8037 45.56 86.273 44.408C86.7423 43.256 87.233 42.0827 87.745 40.888C87.1903 41.528 86.657 42.1253 86.145 42.68C85.6757 43.192 85.3343 43.576 85.121 43.832C84.993 44.0027 84.8863 44.088 84.801 44.088C84.7157 44.088 84.673 43.9813 84.673 43.768C84.673 43.4267 84.7797 43.1067 84.993 42.808C85.5903 42.04 86.273 41.2293 87.041 40.376C87.809 39.5227 88.5557 38.6267 89.281 37.688C91.073 33.9333 93.0783 30.3067 95.297 26.808C97.5157 23.2667 100.012 20.1307 102.785 17.4C103.638 16.5893 104.598 15.7573 105.665 14.904C106.732 14.0507 107.862 13.3253 109.057 12.728C110.294 12.1307 111.51 11.832 112.705 11.832C113.345 11.832 113.921 12.0027 114.433 12.344C114.988 12.6853 115.286 13.2187 115.329 13.944V15.8C115.329 15.9707 115.201 16.056 114.945 16.056C114.817 16.056 114.753 16.0133 114.753 15.928C114.753 15.2453 114.454 14.7973 113.857 14.584C113.26 14.328 112.662 14.2 112.065 14.2C109.718 14.2 107.606 14.8187 105.729 16.056C103.852 17.2507 102.188 18.8293 100.737 20.792C99.2863 22.712 97.985 24.8453 96.833 27.192C95.681 29.496 94.6357 31.7787 93.697 34.04C92.801 36.2587 91.9477 38.2427 91.137 39.992C91.137 39.992 91.137 40.0347 91.137 40.12C91.137 40.2053 91.1583 40.248 91.201 40.248C91.2437 40.248 91.585 39.928 92.225 39.288C92.9077 38.6053 93.7397 37.816 94.721 36.92C95.745 36.024 96.8117 35.256 97.921 34.616C99.0303 33.9333 100.054 33.592 100.993 33.592C101.462 33.592 101.761 33.7627 101.889 34.104C102.017 34.4027 102.081 34.744 102.081 35.128V35.704C101.868 37.2827 101.313 38.9893 100.417 40.824C99.5637 42.6587 98.4543 44.408 97.089 46.072C95.7663 47.6933 94.273 49.016 92.609 50.04C90.9877 51.064 89.281 51.576 87.489 51.576ZM88.513 50.488C89.1957 50.488 89.921 50.232 90.689 49.72C91.4997 49.1653 92.1183 48.6747 92.545 48.248C93.057 47.7787 93.6757 47.0533 94.401 46.072C95.1263 45.048 95.8303 43.9387 96.513 42.744C97.1957 41.5493 97.7717 40.3973 98.241 39.288C98.7103 38.1787 98.945 37.2827 98.945 36.6C98.945 36.3867 98.9023 36.1947 98.817 36.024C98.7317 35.8533 98.5823 35.768 98.369 35.768C97.985 35.768 97.473 36.0027 96.833 36.472C96.2357 36.9413 95.5743 37.5173 94.849 38.2C94.1663 38.84 93.5263 39.48 92.929 40.12C92.3743 40.7173 91.969 41.1653 91.713 41.464C91.2437 41.976 90.6463 42.7227 89.921 43.704C89.1957 44.6853 88.5343 45.688 87.937 46.712C87.3823 47.6933 87.105 48.5253 87.105 49.208C87.105 50.0613 87.5743 50.488 88.513 50.488ZM105.637 51.512C103.887 51.512 102.671 51.1707 101.989 50.488C101.306 49.8053 100.965 48.9733 100.965 47.992C100.965 46.7547 101.285 45.432 101.924 44.024C102.607 42.616 103.247 41.4213 103.845 40.44C104.527 39.416 105.445 38.3493 106.597 37.24C107.749 36.1307 109.007 35.192 110.373 34.424C111.738 33.656 113.061 33.272 114.341 33.272C115.45 33.272 116.218 33.5493 116.645 34.104C117.071 34.616 117.285 35.2347 117.285 35.96C117.285 37.2827 116.879 38.3707 116.069 39.224C115.301 40.0773 114.341 40.7813 113.189 41.336C112.037 41.848 110.927 42.2747 109.861 42.616C109.221 42.7867 108.474 42.9573 107.621 43.128C106.767 43.2987 105.957 43.384 105.189 43.384C104.89 44.152 104.655 44.8987 104.485 45.624C104.314 46.3493 104.229 47.0107 104.229 47.608C104.229 48.3333 104.399 48.9307 104.741 49.4C105.125 49.8693 105.743 50.104 106.597 50.104C106.938 50.104 107.343 50.0613 107.812 49.976C108.282 49.8907 108.794 49.7627 109.349 49.592C110.629 49.1653 111.887 48.4827 113.125 47.544C114.362 46.6053 115.493 45.6027 116.517 44.536C117.583 43.4267 118.394 42.5093 118.949 41.784C119.077 41.912 119.141 42.0613 119.141 42.232C119.141 42.4453 118.991 42.7867 118.693 43.256C117.839 44.4507 116.73 45.688 115.365 46.968C113.999 48.248 112.485 49.336 110.821 50.232C109.157 51.0853 107.429 51.512 105.637 51.512ZM105.701 42.104C106.255 42.1467 106.874 42.1467 107.557 42.104C108.282 42.0187 108.986 41.8693 109.669 41.656C111.418 41.144 112.677 40.3333 113.445 39.224C114.255 38.072 114.661 37.048 114.661 36.152C114.661 35.64 114.554 35.2133 114.341 34.872C114.127 34.5307 113.786 34.36 113.317 34.36C112.079 34.36 110.97 34.8293 109.989 35.768C109.007 36.664 108.154 37.7093 107.429 38.904C106.703 40.0987 106.127 41.1653 105.701 42.104ZM120.486 51.192C120.059 51.192 119.697 51.1067 119.398 50.936C119.099 50.7653 118.95 50.4453 118.95 49.976C118.95 49.3787 119.099 48.6747 119.398 47.864C119.739 47.0533 120.102 46.2427 120.486 45.432C120.87 44.6213 121.19 43.96 121.446 43.448C121.659 43.064 121.937 42.4667 122.278 41.656C122.662 40.8027 123.046 39.928 123.43 39.032C123.857 38.0933 124.198 37.304 124.454 36.664C124.753 36.024 124.902 35.704 124.902 35.704C124.518 36.1307 124.006 36.728 123.366 37.496C122.769 38.264 122.107 39.0747 121.382 39.928C120.699 40.7387 120.059 41.5067 119.462 42.232C118.907 42.9573 118.502 43.4907 118.246 43.832C118.118 44.0027 118.011 44.088 117.926 44.088C117.841 44.088 117.798 43.9813 117.798 43.768C117.798 43.4267 117.905 43.1067 118.118 42.808C118.63 42.168 119.249 41.4 119.974 40.504C120.699 39.5653 121.425 38.6267 122.15 37.688C122.918 36.7493 123.579 35.9173 124.134 35.192C123.793 35.192 123.345 35.2133 122.79 35.256C122.278 35.2987 121.809 35.3627 121.382 35.448C120.955 35.4907 120.721 35.512 120.678 35.512C120.465 35.512 120.486 35.3413 120.742 35C120.998 34.6587 121.339 34.3173 121.766 33.976C122.193 33.6347 122.513 33.464 122.726 33.464C122.769 33.464 123.11 33.4853 123.75 33.528C124.39 33.528 124.859 33.528 125.158 33.528C126.011 32.376 126.843 31.0533 127.654 29.56C128.507 28.0667 129.339 26.424 130.15 24.632C130.491 24.5893 131.067 24.3547 131.878 23.928C132.731 23.4587 133.393 22.9893 133.862 22.52C134.075 22.3067 134.246 22.2 134.374 22.2C134.63 22.2 134.63 22.3707 134.374 22.712C134.075 23.0533 133.563 23.7787 132.838 24.888C132.113 25.9547 131.302 27.256 130.406 28.792C129.51 30.2853 128.657 31.864 127.846 33.528H133.03C133.499 33.528 133.734 33.592 133.734 33.72C133.734 33.8907 133.414 34.0613 132.774 34.232C132.049 34.4453 131.281 34.5733 130.47 34.616C129.702 34.6587 128.977 34.744 128.294 34.872C127.654 35 127.185 35.2773 126.886 35.704C126.63 36.0027 126.267 36.6427 125.798 37.624C125.329 38.6053 124.817 39.736 124.262 41.016C123.75 42.2533 123.302 43.512 122.918 44.792C122.534 46.0293 122.299 47.0747 122.214 47.928V48.184C122.214 48.5253 122.321 48.8027 122.534 49.016C122.747 49.2293 122.961 49.336 123.174 49.336C123.729 49.336 124.433 48.9947 125.286 48.312C126.182 47.6293 127.099 46.8187 128.038 45.88C128.977 44.8987 129.787 44.0027 130.47 43.192C130.769 42.8507 131.025 42.5307 131.238 42.232C131.494 41.9333 131.643 41.7413 131.686 41.656C131.771 41.8267 131.814 41.9547 131.814 42.04C131.814 42.296 131.729 42.5733 131.558 42.872C131.43 43.1707 131.281 43.4267 131.11 43.64C130.299 44.7067 129.318 45.8373 128.166 47.032C127.014 48.184 125.777 49.1653 124.454 49.976C123.174 50.7867 121.851 51.192 120.486 51.192ZM134.262 51.512C132.512 51.512 131.296 51.1707 130.614 50.488C129.931 49.8053 129.59 48.9733 129.59 47.992C129.59 46.7547 129.91 45.432 130.549 44.024C131.232 42.616 131.872 41.4213 132.47 40.44C133.152 39.416 134.07 38.3493 135.222 37.24C136.374 36.1307 137.632 35.192 138.998 34.424C140.363 33.656 141.686 33.272 142.966 33.272C144.075 33.272 144.843 33.5493 145.27 34.104C145.696 34.616 145.91 35.2347 145.91 35.96C145.91 37.2827 145.504 38.3707 144.694 39.224C143.926 40.0773 142.966 40.7813 141.814 41.336C140.662 41.848 139.552 42.2747 138.486 42.616C137.846 42.7867 137.099 42.9573 136.246 43.128C135.392 43.2987 134.582 43.384 133.814 43.384C133.515 44.152 133.28 44.8987 133.11 45.624C132.939 46.3493 132.854 47.0107 132.854 47.608C132.854 48.3333 133.024 48.9307 133.366 49.4C133.75 49.8693 134.368 50.104 135.222 50.104C135.563 50.104 135.968 50.0613 136.438 49.976C136.907 49.8907 137.419 49.7627 137.974 49.592C139.254 49.1653 140.512 48.4827 141.75 47.544C142.987 46.6053 144.118 45.6027 145.142 44.536C146.208 43.4267 147.019 42.5093 147.574 41.784C147.702 41.912 147.766 42.0613 147.766 42.232C147.766 42.4453 147.616 42.7867 147.318 43.256C146.464 44.4507 145.355 45.688 143.99 46.968C142.624 48.248 141.11 49.336 139.446 50.232C137.782 51.0853 136.054 51.512 134.262 51.512ZM134.326 42.104C134.88 42.1467 135.499 42.1467 136.182 42.104C136.907 42.0187 137.611 41.8693 138.294 41.656C140.043 41.144 141.302 40.3333 142.07 39.224C142.88 38.072 143.286 37.048 143.286 36.152C143.286 35.64 143.179 35.2133 142.966 34.872C142.752 34.5307 142.411 34.36 141.942 34.36C140.704 34.36 139.595 34.8293 138.614 35.768C137.632 36.664 136.779 37.7093 136.054 38.904C135.328 40.0987 134.752 41.1653 134.326 42.104ZM155.255 51.192C154.828 51.192 154.466 51.1067 154.167 50.936C153.868 50.7653 153.719 50.4453 153.719 49.976C153.719 49.3787 153.868 48.696 154.167 47.928C154.466 47.16 154.807 46.4133 155.191 45.688C155.575 44.92 155.916 44.3013 156.215 43.832C154.722 45.4107 153.164 46.904 151.543 48.312C150.732 48.9947 149.836 49.6347 148.855 50.232C147.874 50.8293 146.828 51.128 145.719 51.128C145.292 51.128 144.994 51 144.823 50.744C144.652 50.4453 144.567 50.104 144.567 49.72C144.567 49.5067 144.588 49.3573 144.631 49.272C144.844 47.608 145.378 45.88 146.231 44.088C147.084 42.296 148.13 40.6107 149.367 39.032C150.604 37.4533 151.863 36.1733 153.143 35.192C154.594 34.0827 156.194 33.528 157.943 33.528H165.303C165.516 33.528 165.623 33.6133 165.623 33.784C165.623 34.1253 165.431 34.296 165.047 34.296C164.62 34.296 164.194 34.5733 163.767 35.128C163.34 35.64 163.02 36.0667 162.807 36.408C162.508 36.8773 162.039 37.6667 161.399 38.776C160.759 39.8853 160.098 41.1013 159.415 42.424C158.775 43.704 158.22 44.8987 157.751 46.008C157.282 47.1173 157.047 47.928 157.047 48.44C157.047 49.0373 157.346 49.336 157.943 49.336C158.583 49.336 159.308 49.0373 160.119 48.44C160.93 47.8427 161.74 47.1173 162.551 46.264C163.404 45.368 164.172 44.4933 164.855 43.64C165.58 42.744 166.156 42.04 166.583 41.528C166.839 41.784 166.818 42.1467 166.519 42.616C166.263 43.0427 166.028 43.384 165.815 43.64C164.962 44.7493 163.98 45.9013 162.871 47.096C161.762 48.248 160.546 49.2293 159.223 50.04C157.943 50.808 156.62 51.192 155.255 51.192ZM148.343 48.952C148.855 48.952 149.559 48.5893 150.455 47.864C151.394 47.096 152.396 46.1573 153.463 45.048C154.53 43.896 155.532 42.7013 156.471 41.464C157.41 40.184 158.178 39.032 158.775 38.008C159.415 36.9413 159.735 36.1307 159.735 35.576C159.735 35.1067 159.586 34.7867 159.287 34.616C159.031 34.4453 158.69 34.36 158.263 34.36C157.58 34.36 156.834 34.616 156.023 35.128C155.255 35.5973 154.636 36.0667 154.167 36.536C153.655 37.0053 153.036 37.752 152.311 38.776C151.628 39.7573 150.946 40.8453 150.263 42.04C149.58 43.2347 149.004 44.3867 148.535 45.496C148.066 46.6053 147.831 47.5013 147.831 48.184C147.831 48.696 148.002 48.952 148.343 48.952Z" fill="#264E36"/>
</svg>
