<svg width="142" height="62" viewBox="0 0 142 62" fill="none" xmlns="http://www.w3.org/2000/svg">
<rect width="142" height="62" rx="8" fill="white"/>
<rect x="0.5" y="0.5" width="141" height="61" rx="7.5" stroke="#264E36" stroke-opacity="0.61"/>
<path d="M81.6414 10.5006H61.3639V50.8902H81.6414V10.5006Z" fill="#FF5F00"/>
<path d="M62.6514 30.6954C62.6514 22.8459 65.9344 15.3531 71.4705 10.5006C61.4283 1.72339 46.88 3.65011 38.9621 14.8536C31.0442 25.9857 32.7823 42.113 42.8888 50.8902C51.3217 58.2403 63.102 58.2403 71.5349 50.8902C65.9344 46.0378 62.6514 38.545 62.6514 30.6954Z" fill="#EB001B"/>
<path d="M109 30.6953C109 44.8959 98.6359 56.3848 85.8256 56.3848C80.6114 56.3848 75.5903 54.4581 71.5348 50.8901C81.577 42.1129 83.3151 25.9856 75.3972 14.7821C74.2385 13.2122 72.951 11.7136 71.5348 10.5005C81.577 1.72327 96.1897 3.64998 104.043 14.8535C107.262 19.3491 109 24.9152 109 30.6953Z" fill="#F79E1B"/>
<path d="M106.811 46.6087V45.7523H107.133V45.6096H106.361V45.7523H106.683V46.6087H106.811ZM108.292 46.6087V45.6096H108.034L107.777 46.3232L107.519 45.6096H107.262V46.6087H107.455V45.8237L107.713 46.4659H107.906L108.163 45.8237V46.6087H108.292Z" fill="#F79E1B"/>
</svg>
