<svg width="142" height="62" viewBox="0 0 142 62" fill="none" xmlns="http://www.w3.org/2000/svg">
<rect width="142" height="62" rx="8" fill="white"/>
<rect x="0.5" y="0.5" width="141" height="61" rx="7.5" stroke="#264E36" stroke-opacity="0.61"/>
<g clip-path="url(#clip0_1_84)">
<path d="M81.2596 20C76.2249 20 71.7045 22.6198 71.7045 27.4272C71.7045 32.9638 79.6897 33.3419 79.6897 36.0967C79.6897 37.258 78.3363 38.3113 76.0625 38.3113C72.8143 38.3113 70.3782 36.8529 70.3782 36.8529L69.3496 41.7143C69.3496 41.7143 72.1376 42.9567 75.873 42.9567C81.395 42.9567 85.7259 40.2289 85.7259 35.3134C85.7259 29.4798 77.7137 29.1016 77.7137 26.5359C77.7137 25.6176 78.8235 24.6183 81.0972 24.6183C83.6687 24.6183 85.78 25.6716 85.78 25.6716L86.8086 20.9723C86.7815 20.9723 84.4807 20 81.2596 20ZM35.1353 20.3511L35 21.0533C35 21.0533 37.1113 21.4314 39.0332 22.2146C41.4964 23.1059 41.6588 23.6191 42.0919 25.2125L46.6123 42.5786H52.6756L61.96 20.3511H55.9238L49.9417 35.4755L47.5055 22.6468C47.289 21.1883 46.1521 20.3511 44.7446 20.3511H35.1353ZM64.3961 20.3511L59.6592 42.5786H65.4247L70.1346 20.3511H64.3961ZM96.499 20.3511C95.1186 20.3511 94.3877 21.0803 93.8464 22.3767L85.4011 42.5786H91.4373L92.6012 39.2026H99.9638L100.668 42.5786H106L101.371 20.3511H96.499ZM97.284 26.3739L99.0705 34.7193H94.2794L97.284 26.3739Z" fill="#1434CB"/>
</g>
<defs>
<clipPath id="clip0_1_84">
<rect width="71" height="22.9567" fill="white" transform="translate(35 20)"/>
</clipPath>
</defs>
</svg>
